# xmcd CD database file
#
# Track frame offsets:
#	150
#	18750
#	36296
#	47987
#	64891
#	79388
#	93320
#	106870
#	121767
#	140480
#	158105
#	174643
#	193131
#	209585
#	225251
#
# Disc length: 3222 seconds
#
# Revision: 0
# Processed by: cddbd v1.5.2PL0 Copyright (c) Steve Scherf et al.
# Submitted via: CDex 1.78
#
DISCID=c90c940f
DTITLE=Scott Bradlee's Postmodern Jukebox - Historical Misappropriation
DYEAR=2014
DGENRE=Jazz
TTITLE0=Rude (feat. Von Smith)
TTITLE1=Womanizer
TTITLE2=Wiggle
TTITLE3=Maps (feat. Morgan James)
TTITLE4=Stay With Me
TTITLE5=Girls Just Wanna Have Fun
TTITLE6=Really Don't Care (feat. Morgan James)
TTITLE7=No Diggity (feat. Ariana Savalas)
TTITLE8=Creep (feat. Karen Marie)
TTITLE9=Summer
TTITLE10=All About That Bass (feat. Kate Davis)
TTITLE11=Waterfalls
TTITLE12=Livin' On a Prayer (feat. Miche Braden)
TTITLE13=Problem
TTITLE14=Break Free (feat. Morgan James)
EXTD=YEAR: 2014
EXTT0=
EXTT1=
EXTT2=
EXTT3=
EXTT4=
EXTT5=
EXTT6=
EXTT7=
EXTT8=
EXTT9=
EXTT10=
EXTT11=
EXTT12=
EXTT13=
EXTT14=
PLAYORDER=
